<?xml version="1.0" encoding="utf-8"?>
<!-- Generator: Adobe Illustrator 24.1.0, SVG Export Plug-In . SVG Version: 6.00 Build 0)  -->
<svg version="1.1" id="Layer_1" xmlns="http://www.w3.org/2000/svg" xmlns:xlink="http://www.w3.org/1999/xlink" x="0px" y="0px"
         width="178px" height="37px"
	 viewBox="-5 -5 173.16 32.29" style="enable-background:new -5 -5 173.16 32.29;" xml:space="preserve">
<style type="text/css">
	.st0{fill:#FFFFFF;}
	.st1{fill:#231F20;}
	.st2{fill:#0063A6;}
</style>
<path class="st0" d="M164.69,27.06"/>
<path class="st1" d="M162.61,5.7l-3.9,21.17h-5.65l3.9-21.17h-4.57l0.98-5.34h14.8l-0.98,5.34H162.61z M144.11,16.24h5.29l0.98-5.29
	h-5.29l0.98-5.24h5.76l0.98-5.34h-11.36l-4.88,26.51h5.65L144.11,16.24z M129.47,5.4c-1.9,0-2.42,0.77-3.8,8.22
	c-1.39,7.5-1.18,8.27,0.77,8.27c2,0,2.41-0.77,3.8-8.27C131.62,6.17,131.47,5.4,129.47,5.4 M135.99,13.62
	c-2.06,11-4.42,13.67-10.23,13.67c-5.7,0-7.91-2.67-5.86-13.67C121.96,2.67,124.38,0,130.08,0C135.89,0,138.05,2.67,135.99,13.62
	 M118.98,1.44c-1.49-0.67-3.9-1.44-5.55-1.44c-4.26,0-7.5,1.9-8.58,7.5c-1.23,6.78,1.08,8.58,4.47,8.58c1.9,0,2.52,1.08,2.16,2.98
	c-0.36,2-1.54,2.78-3.34,2.78c-1.95,0-3.08-0.57-4.73-1.44l-1.03,5.5c1.54,0.82,2.98,1.39,5.55,1.39c4.11,0,7.86-2,8.99-8.07
	c1.28-7.09-1.7-8.89-4.99-8.89c-1.59,0-2-0.82-1.64-2.52c0.31-1.8,1.23-2.42,2.83-2.42c1.85,0,3.19,0.67,4.78,1.54L118.98,1.44z
	 M74.95,11.41c2.11,0,2.67-1.39,2.98-2.88c0.26-1.44,0-2.83-2.11-2.83h-1.29l-1.03,5.7H74.95z M57.99,16.8l-0.15-5.45
	c-0.05-1.64,0.2-5.7,0.2-5.7s-1.28,4.06-1.95,5.7l-2.16,5.45H57.99z M51.82,22.15l-1.9,4.73h-5.24L56.04,0.36h6.27l1.54,26.51h-5.6
	l-0.15-4.73H51.82z M95.24,16.8h-4.06l2.16-5.45c0.67-1.64,1.95-5.7,1.95-5.7s-0.26,4.06-0.21,5.7L95.24,16.8z M89.08,22.15h6.27
	l0.15,4.73h5.6L99.56,0.36h-6.27L81.93,26.88h5.24L89.08,22.15z M40.67,13.31h-1.03l1.39-7.6h0.93c2.05,0,2.26,1.85,1.9,3.8
	C43.5,11.46,42.83,13.31,40.67,13.31 M42.57,0.36h-6.22l-4.88,26.51h5.65l1.54-8.22h1.44c5.6,0,8.17-3.44,9.15-8.79
	C50.23,4.52,48.38,0.36,42.57,0.36 M74.28,16.75h-1.75l-1.9,10.12h-5.5l4.93-26.51h6.37c5.81,0,7.71,3.8,6.83,8.53
	c-0.51,2.88-1.69,4.83-3.75,6.27l0.98,6.94h2.11l-0.87,4.78h-6.27L74.28,16.75z"/>
<path class="st2" d="M7.41,5.82l9.93-1.8L7.41,2.17V0.31H0v7.41h7.41V5.82z M5.46,19.67h1.96v7.41H0v-7.41h1.85l1.8-9.93L5.46,19.67
	z M26.77,27.08H19.3v-1.85l-9.94-1.8l9.94-1.8v-1.96h7.46V27.08z M21.26,7.72l1.8,9.99l1.85-9.99h1.85V0.31H19.3v7.41H21.26z"/>
<path class="st2" d="M16.91,7.58l0.88,3.19l-1.04,0.28l0.16,2.91l-1.32-2.59l-1,0.24l-0.88-3.19L16.91,7.58z M13.04,18.94
	l-0.84-3.19l-1.04,0.28l-1.32-2.59l0.16,2.91l-1,0.24l0.84,3.23L13.04,18.94z M19.5,17.22l-3.19,0.84l-0.28-1l-2.91,0.16l2.59-1.32
	l-0.28-1.04l3.23-0.84L19.5,17.22z M8.14,13.36l3.19-0.88l-0.28-1l2.59-1.32l-2.91,0.16l-0.28-1.04l-3.19,0.88L8.14,13.36z"/>
<path class="st1" d="M164.92,23.08h-0.82v1.08h0.82c0.26,0,0.55-0.21,0.55-0.53C165.47,23.3,165.18,23.08,164.92,23.08
	 M165.42,25.77l-0.79-1.21h-0.53v1.21h-0.43V22.7h1.25c0.52,0,1,0.37,1,0.93c0,0.68-0.61,0.91-0.78,0.91l0.82,1.22H165.42z
	 M164.69,21.96c-1.26,0-2.27,1-2.27,2.27c0,1.25,1.01,2.27,2.27,2.27c1.26,0,2.27-1.02,2.27-2.27
	C166.96,22.96,165.95,21.96,164.69,21.96 M164.69,26.9c-1.48,0-2.67-1.2-2.67-2.67c0-1.49,1.2-2.67,2.67-2.67
	c1.49,0,2.67,1.18,2.67,2.67C167.36,25.7,166.18,26.9,164.69,26.9"/>
</svg>
